<svg width="30" height="33" viewBox="0 0 30 33" fill="none" xmlns="http://www.w3.org/2000/svg">
<path d="M12.6562 0.459961C1.73438 3.50684 1.33594 3.64746 0.65625 4.28027L0 4.91309V11.9912C0 18.3896 0.046875 19.21 0.46875 20.5693C1.07812 22.5381 2.41406 24.5771 4.00781 25.9834C5.60156 27.3896 13.9922 32.4756 14.7422 32.4756C15.2812 32.4756 18.2812 31.0928 18.2812 30.835C18.2812 30.7646 17.9062 30.3428 17.4609 29.8975C16.6875 29.1475 16.6172 29.124 15.7266 29.4053L14.7891 29.6865L10.6406 27.1787C5.97656 24.3428 4.61719 23.1475 3.46875 20.8271L2.69531 19.2334V12.6709V6.1084L3.63281 5.80371C5.97656 5.03027 14.5781 2.70996 15.1172 2.70996C15.4453 2.70996 16.4297 2.9209 17.2969 3.15527C18.1641 3.41309 20.0391 3.95215 21.4453 4.35059C22.875 4.74902 24.7266 5.28809 25.6172 5.5459L27.1875 6.01465V12.1553V18.3193L28.1484 19.2334L29.0859 20.1709L29.5547 19.6084C29.9766 19.0928 30 18.624 30 12.0615V5.05371L29.3672 4.35059C28.7812 3.74121 27.9609 3.43652 22.5 1.88965C19.0781 0.905273 15.9141 0.0615234 15.4688 0.0146484C15 -0.0556641 13.8047 0.131836 12.6562 0.459961Z" fill="#1369AD"/>
<path d="M15.867 7.91315C15.6561 8.59283 15.2342 10.1631 14.9061 11.3819C14.578 12.6006 13.828 15.3428 13.242 17.4522C12.6795 19.5616 12.2577 21.3897 12.328 21.4835C12.3983 21.6006 12.867 21.6944 13.3827 21.6944C14.5077 21.6944 14.367 22.0225 15.9374 16.0694C16.617 13.5616 17.4139 10.5616 17.742 9.41315C18.0467 8.26471 18.2577 7.18658 18.1874 7.02252C18.117 6.81158 17.6952 6.6944 17.1327 6.6944C16.2186 6.6944 16.1952 6.71783 15.867 7.91315Z" fill="white"/>
<path d="M7.26562 11.9679L4.82812 14.4054L5.29688 14.9445C6.5625 16.421 8.85938 18.7413 9.44531 19.1632L10.1016 19.632L10.6875 19.0929C10.9922 18.8116 11.25 18.4366 11.25 18.2491C11.25 18.0851 10.5 17.1476 9.5625 16.1866L7.89844 14.4054L9.5625 12.7179C10.5 11.7804 11.25 10.8429 11.25 10.6554C11.25 10.2101 10.5234 9.50696 10.0547 9.50696C9.86719 9.50696 8.625 10.6085 7.26562 11.9679Z" fill="white"/>
<path d="M19.1484 9.92871C18.9141 10.1631 18.75 10.5146 18.75 10.7021C18.75 10.8662 19.5469 11.8271 20.5078 12.7881L22.2656 14.5459L20.5078 16.3037C19.5469 17.2646 18.75 18.1787 18.75 18.3428C18.75 18.6709 19.6641 19.585 19.9922 19.585C20.2734 19.585 24.5625 15.3896 24.8906 14.8037C25.1016 14.4287 24.7734 14.0068 22.7109 11.9443C21.375 10.6084 20.1094 9.50684 19.8984 9.50684C19.6875 9.50684 19.3594 9.69434 19.1484 9.92871Z" fill="white"/>
<path d="M24.0234 22.1163C22.9922 23.1241 21.7031 24.3429 21.1875 24.8116L20.2031 25.6788L19.0078 24.507C18.3516 23.8741 17.625 23.3351 17.4141 23.3351C16.8516 23.3351 15.7031 24.507 15.7031 25.0929C15.7031 25.6554 19.6406 29.6632 20.1797 29.6632C20.625 29.6632 27.8906 22.3741 27.8906 21.9288C27.8906 21.4835 26.7188 20.2882 26.2734 20.2882C26.0625 20.2882 25.0547 21.1085 24.0234 22.1163Z" fill="#30DBE8"/>
</svg>
